<svg width="1340" height="600" viewBox="0 0 1340 600" fill="none" xmlns="http://www.w3.org/2000/svg">
<mask id="mask0_122_14" style="mask-type:alpha" maskUnits="userSpaceOnUse" x="0" y="0" width="1340" height="600">
<rect width="1340" height="600" rx="16" fill="#47DCA1"/>
</mask>
<g mask="url(#mask0_122_14)">
<path d="M-4.01763 -87.0726C110.261 -128.391 261.9 -126.406 295.385 51.8664C346.751 325.337 646.089 437.047 888.479 276.372C1130.87 115.697 1121.66 47.35 1199.83 115.638" stroke="#065133" stroke-width="2" stroke-dasharray="13 13"/>
<path d="M635.478 736.91C731.106 803.301 871.986 838.798 946.88 681.995C1061.77 441.457 1366.41 411.734 1551.26 620.171C1736.11 828.608 1710.75 889.617 1799.94 845.644" stroke="#065133" stroke-width="2" stroke-dasharray="13 13"/>
<path d="M580.143 737.086C512.049 761.706 421.694 760.523 401.742 654.298C371.135 491.35 192.773 424.787 48.3439 520.526C-96.0857 616.265 -90.5959 656.99 -137.179 616.3" stroke="#065133" stroke-width="2" stroke-dasharray="13 13"/>
</g>
<path d="M1045.41 159.708L1040.12 150.76L1045.41 141.814H1055.97L1061.25 150.76L1055.97 159.708L1045.41 159.708ZM1059.75 135.42H1041.63L1032.57 150.761L1041.63 166.102H1059.75L1068.8 150.761L1059.75 135.42Z" fill="#065133"/>
<rect x="1044.92" y="148.593" width="11.9374" height="11.3055" fill="#05422A"/>
<path d="M1054.77 549.325L1049.83 539.852L1055.73 530.945L1066.58 531.51L1071.53 540.981L1065.63 549.89L1054.77 549.325ZM1070.8 525.144L1052.2 524.176L1042.07 539.449L1050.55 555.691L1069.16 556.659L1079.28 541.385L1070.8 525.144Z" fill="#065133"/>
<rect x="1055.08" y="538.325" width="12.2785" height="11.6286" transform="rotate(2.98317 1055.08 538.325)" fill="#05422A"/>
<path d="M279.23 28.4007L278.655 18.0293L287.463 12.507L296.848 17.3547L297.423 27.7244L288.615 33.2483L279.23 28.4007ZM303.141 13.4073L287.053 5.09676L271.95 14.566L272.937 32.348L289.025 40.6585L304.127 31.1872L303.141 13.4073Z" fill="#065133"/>
<rect x="285.696" y="18.5547" width="11.9374" height="11.3055" transform="rotate(27.3523 285.696 18.5547)" fill="#05422A"/>
</svg>
