<?xml version="1.0" encoding="utf-8"?>
<!-- Generator: Adobe Illustrator 27.5.0, SVG Export Plug-In . SVG Version: 6.00 Build 0)  -->
<svg version="1.1" id="Layer_1" xmlns="http://www.w3.org/2000/svg" xmlns:xlink="http://www.w3.org/1999/xlink" x="0px" y="0px"
	 viewBox="0 0 820 527" style="enable-background:new 0 0 820 527;" xml:space="preserve">
<style type="text/css">
	.st0{fill:#F9D500;}
</style>
<path class="st0" d="M320.3,593.6c-5.7,0-10.9-3-13.8-7.9L187,383.3c-3-5-3-11.2,0-16.3l119.5-202.4c2.9-4.9,8.1-7.9,13.8-7.9h239.6
	c5.7,0,10.9,3,13.8,7.9l119.5,202.4c3,5,3,11.2,0,16.3L573.6,585.7c-2.9,4.9-8.1,7.9-13.8,7.9L320.3,593.6z M665.7,8.6
	c-2.9-4.9-8.1-7.9-13.8-7.9H228.2c-5.7,0-10.9,3-13.8,7.9L2.8,367.1c-3,5-3,11.2,0,16.3l211.6,358.5c2.9,4.9,8.1,7.9,13.8,7.9h423.7
	c5.7,0,10.9-3,13.8-7.9l211.5-358.5c3-5,3-11.2,0-16.3L665.7,8.6z"/>
</svg>
