<svg width="820" height="527" viewBox="0 0 820 527" fill="none" xmlns="http://www.w3.org/2000/svg">
<path opacity="0.15" d="M320.248 593.617C314.586 593.617 309.346 590.625 306.469 585.75L187 383.328C184.038 378.31 184.039 372.079 187 367.062L306.468 164.679C309.346 159.804 314.586 156.812 320.247 156.812H559.802C565.463 156.812 570.703 159.804 573.581 164.679L693.036 367.063C695.997 372.08 695.997 378.31 693.036 383.327L573.58 585.747C570.703 590.623 565.463 593.615 559.801 593.615L320.248 593.617ZM665.667 8.60906C662.789 3.73298 657.549 0.740723 651.887 0.740723H228.164C222.503 0.740723 217.263 3.73236 214.385 8.60763L2.8005 367.065C-0.161116 372.082 -0.161238 378.313 2.80021 383.33L214.385 741.816C217.263 746.692 222.503 749.684 228.164 749.684H651.887C657.549 749.684 662.789 746.691 665.666 741.815L877.202 383.329C880.162 378.312 880.162 372.083 877.201 367.066L665.667 8.60906Z" fill="#97D8EB"/>
</svg>
