<svg width="19" height="18" viewBox="0 0 19 18" fill="none" xmlns="http://www.w3.org/2000/svg">
<path d="M18.246 0H0.236572V17.9186H18.246V0Z" fill="#FFCB0A"/>
<path d="M12.949 3.76625L13.2785 3.63862L12.8937 2.69263L10.8817 3.40087L11.1357 4.02151H11.1181C11.1181 4.02151 11.1357 4.03903 11.1357 4.05905L11.2087 4.25926C11.6664 5.40795 13.4595 10.6309 9.03075 10.9787H8.79183C4.06879 10.6159 6.43031 4.64216 6.66923 4.07657L6.99869 3.31078L5.00435 2.5625L4.59945 3.50848L4.94651 3.63611C2.52966 7.80544 2.8239 9.81002 2.8239 9.81002C3.26402 14.4548 8.24106 14.7827 8.75411 14.8002H8.77171C8.78932 14.8202 8.78932 14.8202 8.78932 14.8202V14.8002H9.02824V14.8202C9.02824 14.8202 14.5359 14.7101 15.0138 9.81002C15.0188 9.81252 15.2929 7.84548 12.949 3.76625Z" fill="#252525"/>
<path d="M5.09814 6.86386C5.09814 7.08158 4.89695 7.26427 4.65803 7.26427C4.41911 7.26427 4.23804 7.08158 4.23804 6.86386C4.23804 6.64363 4.42163 6.46094 4.65803 6.46094C4.89695 6.46344 5.09814 6.64613 5.09814 6.86386Z" fill="#FFCB0A"/>
<path d="M4.9405 9.72509C4.9405 9.94532 4.75691 10.1255 4.51799 10.1255C4.27908 10.1255 4.07788 9.94532 4.07788 9.72509C4.07788 9.48734 4.27908 9.30715 4.51799 9.30715C4.75943 9.30465 4.9405 9.48734 4.9405 9.72509Z" fill="#FFCB0A"/>
<path d="M5.96472 12.5113C5.96472 12.729 5.76353 12.9117 5.52461 12.9117C5.28569 12.9117 5.10461 12.729 5.10461 12.5113C5.10461 12.2935 5.28569 12.1108 5.52461 12.1108C5.76353 12.1108 5.96472 12.2935 5.96472 12.5113Z" fill="#FFCB0A"/>
<path d="M12.8481 6.86386C12.8481 7.08158 13.0493 7.26427 13.2883 7.26427C13.5423 7.26427 13.746 7.08158 13.746 6.86386C13.746 6.64363 13.5448 6.46094 13.2883 6.46094C13.0493 6.46344 12.8481 6.64613 12.8481 6.86386Z" fill="#FFCB0A"/>
<path d="M13.488 9.72509C13.488 9.94532 13.6892 10.1255 13.9458 10.1255C14.1847 10.1255 14.3834 9.94532 14.3834 9.72509C14.3834 9.48734 14.1822 9.30715 13.9458 9.30715C13.6867 9.30465 13.488 9.48734 13.488 9.72509Z" fill="#FFCB0A"/>
<path d="M12.5891 12.5113C12.5891 12.729 12.7903 12.9117 13.0468 12.9117C13.2857 12.9117 13.4869 12.729 13.4869 12.5113C13.4869 12.2935 13.2857 12.1108 13.0468 12.1108C12.7903 12.1108 12.5891 12.2935 12.5891 12.5113Z" fill="#FFCB0A"/>
</svg>
