<svg width="341" height="566" viewBox="0 0 341 566" fill="none" xmlns="http://www.w3.org/2000/svg">
<path opacity="0.15" d="M291.08 537.336C285.419 537.336 280.179 534.344 277.301 529.468L169.909 347.508C166.947 342.49 166.948 336.26 169.91 331.242L277.301 149.317C280.179 144.442 285.418 141.451 291.079 141.451H506.481C512.142 141.451 517.382 144.442 520.26 149.318L627.64 331.243C630.601 336.26 630.601 342.49 627.64 347.508L520.26 529.465C517.382 534.341 512.142 537.333 506.48 537.333L291.08 537.336ZM603.719 7.86831C600.842 2.99223 595.601 0 589.94 0H207.623C201.961 0 196.722 2.99164 193.844 7.86691L2.96547 331.245C0.00384998 336.262 0.00373971 342.493 2.96519 347.51L193.844 670.914C196.722 675.79 201.962 678.781 207.623 678.781H589.939C595.601 678.781 600.842 675.789 603.719 670.913L794.553 347.509C797.513 342.492 797.513 336.263 794.553 331.246L603.719 7.86831Z" fill="#B7E3F0"/>
</svg>
