<svg width="29" height="24" viewBox="0 0 29 24" fill="none" xmlns="http://www.w3.org/2000/svg">
<path d="M10.647 0V1.41176H3.58818C2.02818 1.41176 0.764648 2.67529 0.764648 4.23529V21.1765C0.764648 22.7336 2.031 24 3.58818 24H26.1764C27.7336 24 28.9999 22.7336 28.9999 21.1765V4.23529C28.9999 2.67529 27.7364 1.41176 26.1764 1.41176H19.1176V0H10.647ZM3.58818 4.23529H26.1764V21.1765H3.58818V4.23529ZM14.8823 6.35294C13.3223 6.35294 12.0588 7.61647 12.0588 9.17647C12.0588 10.7365 13.3223 12 14.8823 12C16.4423 12 17.7058 10.7365 17.7058 9.17647C17.7058 7.61647 16.4423 6.35294 14.8823 6.35294ZM14.8823 13.2546C12.5261 13.2546 7.82347 14.5048 7.82347 16.9853V19.0588H21.9411V16.9853C21.9411 14.5048 17.2385 13.2546 14.8823 13.2546Z" fill="#77BC1F"/>
</svg>
