<svg width="28" height="24" viewBox="0 0 28 24" fill="none" xmlns="http://www.w3.org/2000/svg">
<path d="M8.47446 0C7.46046 0 6.53509 0.605254 6.13519 1.52961L2.97804 8.8421H1.27517C0.876779 8.8421 0.502734 9.02593 0.260902 9.34046C0.0216147 9.65372 -0.0597453 10.0606 0.0446245 10.4408L3.3037 22.1447C3.6079 23.2361 4.61689 24 5.75732 24H22.2441C23.3845 24 24.3923 23.2373 24.6952 22.1472L27.9543 10.4433C28.06 10.063 27.9798 9.65372 27.7405 9.34046C27.4987 9.02593 27.1234 8.8421 26.7263 8.8421H25.0234L21.8638 1.53207H21.8662C21.467 0.603432 20.5385 0 19.5245 0H8.47446ZM8.47446 2.52632H19.5245L22.2516 8.8421H5.74987L8.47446 2.52632ZM2.94572 11.3684H25.0557L22.2416 21.4737H5.75732L2.94572 11.3684ZM8.9095 13.8947C8.20691 13.8947 7.6367 14.4606 7.6367 15.1579V17.6842C7.6367 18.3815 8.20691 18.9474 8.9095 18.9474C9.61209 18.9474 10.1823 18.3815 10.1823 17.6842V15.1579C10.1823 14.4606 9.61209 13.8947 8.9095 13.8947ZM14.0007 13.8947C13.2981 13.8947 12.7279 14.4606 12.7279 15.1579V17.6842C12.7279 18.3815 13.2981 18.9474 14.0007 18.9474C14.7033 18.9474 15.2735 18.3815 15.2735 17.6842V15.1579C15.2735 14.4606 14.7033 13.8947 14.0007 13.8947ZM19.0919 13.8947C18.3893 13.8947 17.8191 14.4606 17.8191 15.1579V17.6842C17.8191 18.3815 18.3893 18.9474 19.0919 18.9474C19.7945 18.9474 20.3647 18.3815 20.3647 17.6842V15.1579C20.3647 14.4606 19.7945 13.8947 19.0919 13.8947Z" fill="#77BC1F"/>
</svg>
