<svg width="24" height="24" viewBox="0 0 24 24" fill="none" xmlns="http://www.w3.org/2000/svg">
<path d="M8.0724 0L1.00323 2.8287C0.50017 3.02993 0.170654 3.51543 0.170654 4.05688V22.5908C0.170654 23.5268 1.11601 24.1672 1.98578 23.819L8.15514 21.3523L16.0983 24L23.1674 21.1713C23.6705 20.9701 24 20.4846 24 19.9431V1.40918C24 0.473215 23.0546 -0.167178 22.1849 0.180995L16.0155 2.64771L8.0724 0ZM9.43762 3.24499L14.733 5.01099V20.755L9.43762 18.989V3.24499ZM6.78992 3.36393V19.0459L2.81836 20.6361V4.9541L6.78992 3.36393ZM21.3523 3.36393V19.0459L17.3807 20.6361V4.9541L21.3523 3.36393Z" fill="#77BC1F"/>
</svg>
