<svg width="24" height="24" viewBox="0 0 24 24" fill="none" xmlns="http://www.w3.org/2000/svg">
<path d="M7.65811 2C6.86144 2 6.1344 2.47916 5.82022 3.21094L3.33975 9H2.00186C1.68886 9 1.39498 9.14553 1.20498 9.39453C1.01698 9.64253 0.95306 9.96462 1.03506 10.2656L3.59561 19.5312C3.83461 20.3953 4.62734 21 5.52334 21H18.4765C19.3725 21 20.1642 20.3962 20.4022 19.5332L22.9628 10.2676C23.0458 9.96658 22.9828 9.64253 22.7948 9.39453C22.6048 9.14553 22.31 9 21.998 9H20.6601L18.1776 3.21289H18.1796C17.8659 2.47772 17.1364 2 16.3397 2H7.65811ZM7.65811 4H16.3397L18.4823 9H5.51748L7.65811 4ZM3.31436 11H20.6855L18.4745 19H5.52334L3.31436 11ZM7.9999 13C7.4479 13 6.9999 13.448 6.9999 14V16C6.9999 16.552 7.4479 17 7.9999 17C8.5519 17 8.9999 16.552 8.9999 16V14C8.9999 13.448 8.5519 13 7.9999 13ZM11.9999 13C11.4479 13 10.9999 13.448 10.9999 14V16C10.9999 16.552 11.4479 17 11.9999 17C12.5519 17 12.9999 16.552 12.9999 16V14C12.9999 13.448 12.5519 13 11.9999 13ZM15.9999 13C15.4479 13 14.9999 13.448 14.9999 14V16C14.9999 16.552 15.4479 17 15.9999 17C16.5519 17 16.9999 16.552 16.9999 16V14C16.9999 13.448 16.5519 13 15.9999 13Z" fill="#124F2E"/>
</svg>
