<svg width="25" height="24" viewBox="0 0 25 24" fill="none" xmlns="http://www.w3.org/2000/svg">
<path d="M9.5 3V4H4.5C3.395 4 2.5 4.895 2.5 6V18C2.5 19.103 3.397 20 4.5 20H20.5C21.603 20 22.5 19.103 22.5 18V6C22.5 4.895 21.605 4 20.5 4H15.5V3H9.5ZM4.5 6H20.5V13H18.5C18.5 12.7348 18.3946 12.4804 18.2071 12.2929C18.0196 12.1054 17.7652 12 17.5 12C17.2348 12 16.9804 12.1054 16.7929 12.2929C16.6054 12.4804 16.5 12.7348 16.5 13H8.5C8.5 12.7348 8.39464 12.4804 8.20711 12.2929C8.01957 12.1054 7.76522 12 7.5 12C7.23478 12 6.98043 12.1054 6.79289 12.2929C6.60536 12.4804 6.5 12.7348 6.5 13H4.5V6ZM4.5 15H20.5V18H4.5V15Z" fill="#124F2E"/>
</svg>
