<svg width="159" height="40" viewBox="0 0 159 40" fill="none" xmlns="http://www.w3.org/2000/svg">
<g clip-path="url(#clip0_133_2308)">
<path d="M69.2736 35.7185H56.6351V28.0859H69.2736V35.7185ZM69.2736 23.8061H56.6351V16.7824H69.2736V23.8061ZM52.0162 12.4999V40H70.1283L73.8916 36.1659V28.0839L71.4156 25.8776L73.8916 23.8187V16.335L70.1283 12.4999H52.0162ZM81.5979 19.8613L78.6103 22.8565V39.9997H82.9946V23.9147H87.4706L91.4863 19.8613H81.5979ZM105.387 35.9475H95.7029V31.8046H105.387V35.9475ZM95.3215 19.8623L91.1687 23.9131H105.387V27.7528H94.3089L91.3184 30.6712V37.003L94.3063 40H106.787L109.774 37.003V22.8575L106.787 19.8623H95.3215ZM143.565 35.7892L140.079 29.8983L143.565 24.0069H150.535L154.02 29.8982L150.535 35.7892H143.565ZM153.025 19.7938H141.074L135.099 29.8982L141.074 39.9997H153.026L159 29.8982L153.025 19.7938ZM132.672 19.8613L124.214 33.8921L115.759 19.8613H110.673L122.81 39.9997H125.622L137.758 19.8613H132.672ZM16.7587 31.6647L9.85891 19.9991L16.7587 8.33556H30.5582L37.4573 19.9991L30.5582 31.6646L16.7587 31.6647ZM35.487 0H11.8301L0 19.9992L11.8301 40H35.487L47.3143 19.9992L35.487 0Z" fill="#77BC1F"/>
</g>
<defs>
<clipPath id="clip0_133_2308">
<rect width="159" height="40" fill="white"/>
</clipPath>
</defs>
</svg>
